<svg width="127" height="36" viewBox="0 0 127 36" fill="none" xmlns="http://www.w3.org/2000/svg">
<path d="M17.514 35.5329C15.1323 36.1354 12.8892 36.1585 10.7318 35.5819C8.4095 34.9851 6.20924 33.8377 4.21681 32.1223C2.11222 30.3723 0.594797 28.1063 0.00762271 25.2723C-0.107833 22.4355 1.09291 19.7687 3.29316 17.3297C5.60228 14.8734 8.27755 12.8841 11.1178 11.3994C13.7666 9.9521 16.3693 9.13909 18.9523 8.9344C20.694 8.80466 22.1685 8.98629 23.3924 9.46487C24.6228 9.9348 25.5959 10.6815 26.3546 11.6963C27.1232 12.6881 27.6576 13.9479 27.9578 15.4557C28.2976 16.9261 28.3602 18.6587 28.1656 20.6336C28.115 21.2698 28.0656 21.904 28.0172 22.5364C21.0744 23.7415 13.2465 25.0782 4.53349 26.5466C4.37515 24.8956 4.31467 23.2244 4.35206 21.5331C10.6328 20.6182 16.3309 19.7946 21.4461 19.0624C21.5286 18.209 21.4329 17.4623 21.1492 16.8338C20.8655 16.1909 20.4103 15.7239 19.7868 15.4269C19.1667 15.1069 18.3981 14.9973 17.4678 15.104C16.5046 15.2193 15.5678 15.5393 14.6738 16.0698C13.7798 16.5974 12.998 17.2634 12.3647 18.0764C11.7445 18.8721 11.3553 19.737 11.2299 20.6711C11.1376 22.3451 11.1101 24.0105 11.1474 25.6673C11.2266 26.7311 11.5532 27.6104 12.1074 28.3225C12.655 29.0202 13.3576 29.4901 14.1988 29.7698C15.0202 30.0379 15.9405 30.0639 16.9631 29.8505C17.6625 29.7064 18.2826 29.4786 18.8269 29.173C19.3679 28.8617 19.833 28.4782 20.2124 28.0227C20.595 27.5672 20.8886 27.054 21.0766 26.4688C23.3594 26.094 25.597 25.724 27.7896 25.3588C27.463 26.956 26.8461 28.4292 25.9357 29.7756C25.0549 31.1162 23.9201 32.2924 22.5083 33.287C21.103 34.2817 19.4504 35.0341 17.514 35.5329ZM40.5128 29.5247C38.3851 30.0754 36.6005 30.0812 35.1292 29.5276C33.6514 28.951 32.5298 27.8843 31.7744 26.3275C31.0124 24.7159 30.7155 22.718 30.9168 20.3338C31.1576 17.9207 31.8536 15.7411 32.9686 13.8124C34.0901 11.9068 35.502 10.3903 37.191 9.28612C38.8568 8.20212 40.7239 7.61687 42.8219 7.50732C44.6725 7.40641 46.2625 7.66876 47.6051 8.27419C48.9641 8.86809 50.0164 9.74452 50.7488 10.9121C51.5009 12.0567 51.8406 13.4434 51.7483 15.0809C49.6415 15.3327 47.5424 15.5893 45.451 15.8507C45.4345 14.7955 45.1475 13.9941 44.6065 13.4463C44.0787 12.8841 43.3464 12.6506 42.3964 12.7457C41.6376 12.8207 40.9383 13.1234 40.3083 13.6366C39.6848 14.1526 39.1537 14.8734 38.7249 15.8103C38.3092 16.7358 38.0288 17.8601 37.8936 19.1633C37.7616 20.4721 37.8144 21.5446 38.0519 22.3749C38.296 23.1966 38.6886 23.7703 39.2164 24.1076C39.7541 24.4247 40.4072 24.5054 41.1692 24.3498C41.7894 24.2258 42.3436 23.9836 42.845 23.629C43.353 23.2831 43.7917 22.8218 44.1645 22.2682C44.5372 21.7003 44.8044 21.0459 44.9694 20.3078C47.0696 19.9753 49.1786 19.6514 51.2963 19.3362C51.0094 20.9623 50.3562 22.4383 49.3534 23.7732C48.3671 25.1282 47.1004 26.29 45.5829 27.2847C44.0886 28.2937 42.4096 29.0404 40.5128 29.5247ZM62.291 14.6312C61.9304 18.2734 61.407 21.8387 60.7208 25.3271C58.2512 25.5654 55.842 25.8595 53.4933 26.2093C54.7292 17.7352 55.3197 9.18234 55.2647 0.550652C57.2857 0.421878 59.3442 0.238328 61.44 0C61.7896 3.24241 62.0337 6.53094 62.1723 9.86561C62.2558 9.856 62.3372 9.84735 62.4164 9.83966C62.8947 8.58844 63.6765 7.55921 64.7684 6.74909C65.8636 5.93032 67.2457 5.39985 68.9149 5.17497C70.5016 4.95875 71.9299 5.08272 73.1999 5.54976C74.4733 6.02546 75.5157 6.80387 76.3073 7.89652C77.1056 8.98918 77.551 10.3355 77.6334 11.9154C77.6598 16.3091 77.5136 20.6672 77.1947 24.9898C74.4194 24.9898 71.666 25.0013 68.9347 25.0244C69.4295 21.3418 69.777 17.6122 69.9771 13.8355C69.9903 12.7313 69.6505 11.8952 68.9908 11.3359C68.3211 10.7882 67.4008 10.5719 66.2297 10.6959C65.4644 10.7766 64.7981 10.99 64.2208 11.3417C63.6468 11.6761 63.1949 12.1259 62.8617 12.6881C62.5285 13.2416 62.3471 13.8874 62.291 14.6312ZM95.0607 25.5606C92.1842 25.5174 89.7497 25.0215 87.7737 24.073C85.8077 23.1447 84.3299 21.8733 83.3139 20.2473C82.3077 18.6386 81.7964 16.7531 81.7569 14.5822C81.6579 12.394 82.0208 10.422 82.852 8.66051C83.6536 6.85576 84.8841 5.36237 86.5763 4.18322C88.2455 2.96084 90.3897 2.16225 93.0286 1.81917C95.7171 1.47898 98.2241 1.72691 100.54 2.5774C102.951 3.4423 105.053 4.82325 106.765 6.70584C108.467 8.59132 109.522 10.8372 109.836 13.4002C109.987 15.9257 109.367 18.1254 108.058 19.9936C106.758 21.83 104.957 23.2312 102.71 24.2056C100.52 25.1628 97.9668 25.6068 95.0607 25.5606ZM95.3279 20.1723C96.3868 20.1637 97.284 19.884 98.0328 19.342C98.7717 18.7942 99.3325 18.0245 99.6987 17.0471C100.068 16.0612 100.207 14.9224 100.104 13.6279C99.9659 12.3017 99.6162 11.1543 99.0653 10.1827C98.5243 9.21117 97.8316 8.476 97.0069 7.96571C96.1822 7.46984 95.2685 7.25938 94.2492 7.34587C93.2002 7.43812 92.3722 7.78985 91.7355 8.38951C91.1154 8.99206 90.6766 9.77623 90.4094 10.7478C90.1521 11.7165 90.0697 12.8207 90.1653 14.0719C90.2412 15.2943 90.4721 16.361 90.868 17.2778C91.2803 18.1946 91.8444 18.9153 92.5734 19.4198C93.3222 19.9301 94.2327 20.1867 95.3279 20.1723ZM119.722 26.094C118.244 26.0536 117.09 25.6269 116.232 24.8082C115.345 23.998 115.008 23.0236 115.196 21.9021C115.335 20.7806 115.978 19.8264 117.182 19.0422C118.412 18.2465 119.877 17.8573 121.586 17.8832C123.245 17.912 124.66 18.3531 125.785 19.2007C126.89 20.0339 127.237 21.0199 126.844 22.1529C126.544 22.9169 125.993 23.5973 125.191 24.2027C124.419 24.8053 123.539 25.2839 122.566 25.6212C121.622 25.9642 120.682 26.1228 119.722 26.094Z" fill="#3FB72F"/>
</svg>
