<svg width="71" height="74" viewBox="0 0 71 74" fill="none" xmlns="http://www.w3.org/2000/svg">
<g filter="url(#filter0_dd_64_1938)">
<g clip-path="url(#clip0_64_1938)">
<rect x="11" y="7" width="49" height="52" rx="24.5" fill="url(#paint0_linear_64_1938)"/>
<path d="M25 43.5H27.1375L41.8 28.8375L39.6625 26.7L25 41.3625V43.5ZM22 46.5V40.125L41.8 20.3625C42.1 20.0875 42.4313 19.875 42.7938 19.725C43.1563 19.575 43.5375 19.5 43.9375 19.5C44.3375 19.5 44.725 19.575 45.1 19.725C45.475 19.875 45.8 20.1 46.075 20.4L48.1375 22.5C48.4375 22.775 48.6563 23.1 48.7938 23.475C48.9313 23.85 49 24.225 49 24.6C49 25 48.9313 25.3812 48.7938 25.7437C48.6563 26.1062 48.4375 26.4375 48.1375 26.7375L28.375 46.5H22ZM40.7125 27.7875L39.6625 26.7L41.8 28.8375L40.7125 27.7875Z" fill="#DCFDD8"/>
</g>
</g>
<defs>
<filter id="filter0_dd_64_1938" x="0" y="0" width="71" height="74" filterUnits="userSpaceOnUse" color-interpolation-filters="sRGB">
<feFlood flood-opacity="0" result="BackgroundImageFix"/>
<feColorMatrix in="SourceAlpha" type="matrix" values="0 0 0 0 0 0 0 0 0 0 0 0 0 0 0 0 0 0 127 0" result="hardAlpha"/>
<feOffset dy="1"/>
<feGaussianBlur stdDeviation="1.5"/>
<feColorMatrix type="matrix" values="0 0 0 0 0 0 0 0 0 0 0 0 0 0 0 0 0 0 0.3 0"/>
<feBlend mode="normal" in2="BackgroundImageFix" result="effect1_dropShadow_64_1938"/>
<feColorMatrix in="SourceAlpha" type="matrix" values="0 0 0 0 0 0 0 0 0 0 0 0 0 0 0 0 0 0 127 0" result="hardAlpha"/>
<feMorphology radius="3" operator="dilate" in="SourceAlpha" result="effect2_dropShadow_64_1938"/>
<feOffset dy="4"/>
<feGaussianBlur stdDeviation="4"/>
<feColorMatrix type="matrix" values="0 0 0 0 0 0 0 0 0 0 0 0 0 0 0 0 0 0 0.15 0"/>
<feBlend mode="normal" in2="effect1_dropShadow_64_1938" result="effect2_dropShadow_64_1938"/>
<feBlend mode="normal" in="SourceGraphic" in2="effect2_dropShadow_64_1938" result="shape"/>
</filter>
<linearGradient id="paint0_linear_64_1938" x1="47.75" y1="55.5167" x2="21.002" y2="11.8607" gradientUnits="userSpaceOnUse">
<stop stop-color="#24D14D"/>
<stop offset="0.9" stop-color="#9C9C9C"/>
</linearGradient>
<clipPath id="clip0_64_1938">
<rect x="11" y="7" width="49" height="52" rx="24.5" fill="white"/>
</clipPath>
</defs>
</svg>
